<svg width="301" height="84" viewBox="0 0 301 84" fill="none" xmlns="http://www.w3.org/2000/svg">
<rect y="0.388916" width="301" height="83.6111" fill="#4343F4"/>
<path d="M57.8855 30.3215L50.0105 51.7122H48.0105L56.6042 28.9622H57.9949L57.8855 30.3215ZM65.0417 51.7122L57.1511 30.3215L57.0417 28.9622H58.4324L67.0417 51.7122H65.0417ZM63.6355 43.6809V45.3372H51.5574V43.6809H63.6355ZM77.6355 51.7122H72.4792L72.5105 50.0715H77.6355C79.2709 50.0715 80.6772 49.7069 81.8542 48.9778C83.0417 48.2382 83.9584 47.2174 84.6042 45.9153C85.2501 44.6132 85.573 43.1028 85.573 41.384V39.259C85.573 37.9465 85.3855 36.759 85.0105 35.6965C84.6459 34.634 84.1199 33.7278 83.4324 32.9778C82.7449 32.2174 81.922 31.634 80.9636 31.2278C80.0157 30.8215 78.9532 30.6184 77.7761 30.6184H72.3855V28.9622H77.7761C79.1928 28.9622 80.4897 29.2069 81.6667 29.6965C82.8542 30.1757 83.8803 30.8736 84.7449 31.7903C85.6199 32.6965 86.2917 33.7851 86.7605 35.0559C87.2397 36.3267 87.4792 37.7434 87.4792 39.3059V41.384C87.4792 42.9465 87.2397 44.3632 86.7605 45.634C86.2917 46.9049 85.6199 47.9934 84.7449 48.8997C83.8699 49.8059 82.8334 50.5038 81.6355 50.9934C80.4376 51.4726 79.1042 51.7122 77.6355 51.7122ZM73.3386 28.9622V51.7122H71.4167V28.9622H73.3386ZM93.9792 28.9622H95.9167L104.323 48.9934L112.745 28.9622H114.667L105.057 51.7122H103.589L93.9792 28.9622ZM93.3855 28.9622H95.0886L95.2917 41.7747V51.7122H93.3855V28.9622ZM113.589 28.9622H115.292V51.7122H113.37V41.7747L113.589 28.9622ZM124.417 28.9622V51.7122H122.495V28.9622L124.417 28.9622ZM148.542 28.9622V51.7122H146.604L133.526 32.2747V51.7122H131.604V28.9622H133.526L146.635 48.3997V28.9622L148.542 28.9622ZM164.76 28.9622H166.698L175.104 48.9934L183.526 28.9622H185.448L175.839 51.7122H174.37L164.76 28.9622ZM164.167 28.9622H165.87L166.073 41.7747V51.7122H164.167V28.9622ZM184.37 28.9622H186.073V51.7122H184.151V41.7747L184.37 28.9622ZM209.651 39.1184V41.5559C209.651 43.1497 209.443 44.5924 209.026 45.884C208.62 47.1653 208.026 48.2642 207.245 49.1809C206.474 50.0976 205.547 50.8007 204.464 51.2903C203.38 51.7799 202.162 52.0247 200.807 52.0247C199.484 52.0247 198.276 51.7799 197.182 51.2903C196.099 50.8007 195.167 50.0976 194.385 49.1809C193.604 48.2642 193 47.1653 192.573 45.884C192.146 44.5924 191.932 43.1497 191.932 41.5559V39.1184C191.932 37.5247 192.141 36.0872 192.557 34.8059C192.984 33.5142 193.589 32.4101 194.37 31.4934C195.151 30.5767 196.083 29.8736 197.167 29.384C198.25 28.8944 199.453 28.6497 200.776 28.6497C202.13 28.6497 203.349 28.8944 204.432 29.384C205.516 29.8736 206.448 30.5767 207.229 31.4934C208.01 32.4101 208.609 33.5142 209.026 34.8059C209.443 36.0872 209.651 37.5247 209.651 39.1184ZM207.745 41.5559V39.0872C207.745 37.7434 207.589 36.5351 207.276 35.4622C206.974 34.3892 206.521 33.4726 205.917 32.7122C205.323 31.9517 204.594 31.3684 203.729 30.9622C202.865 30.5559 201.88 30.3528 200.776 30.3528C199.703 30.3528 198.74 30.5559 197.885 30.9622C197.031 31.3684 196.302 31.9517 195.698 32.7122C195.104 33.4726 194.646 34.3892 194.323 35.4622C194.01 36.5351 193.854 37.7434 193.854 39.0872V41.5559C193.854 42.9101 194.01 44.1288 194.323 45.2122C194.646 46.2851 195.109 47.2069 195.714 47.9778C196.318 48.7382 197.047 49.3215 197.901 49.7278C198.766 50.134 199.734 50.3372 200.807 50.3372C201.922 50.3372 202.906 50.134 203.76 49.7278C204.615 49.3215 205.339 48.7382 205.932 47.9778C206.526 47.2069 206.974 46.2851 207.276 45.2122C207.589 44.1288 207.745 42.9101 207.745 41.5559ZM221.729 51.7122H216.573L216.604 50.0715H221.729C223.365 50.0715 224.771 49.7069 225.948 48.9778C227.135 48.2382 228.052 47.2174 228.698 45.9153C229.344 44.6132 229.667 43.1028 229.667 41.384V39.259C229.667 37.9465 229.479 36.759 229.104 35.6965C228.74 34.634 228.214 33.7278 227.526 32.9778C226.839 32.2174 226.016 31.634 225.057 31.2278C224.109 30.8215 223.047 30.6184 221.87 30.6184H216.479V28.9622H221.87C223.287 28.9622 224.583 29.2069 225.76 29.6965C226.948 30.1757 227.974 30.8736 228.839 31.7903C229.714 32.6965 230.385 33.7851 230.854 35.0559C231.333 36.3267 231.573 37.7434 231.573 39.3059V41.384C231.573 42.9465 231.333 44.3632 230.854 45.634C230.385 46.9049 229.714 47.9934 228.839 48.8997C227.964 49.8059 226.927 50.5038 225.729 50.9934C224.531 51.4726 223.198 51.7122 221.729 51.7122ZM217.432 28.9622V51.7122H215.51V28.9622H217.432ZM251.62 50.0715V51.7122H238.823V50.0715H251.62ZM239.401 28.9622V51.7122H237.479V28.9622H239.401ZM250.026 39.1653V40.8059H238.823V39.1653H250.026ZM251.542 28.9622V30.6184H238.823V28.9622H251.542Z" fill="white"/>
</svg>
