<svg width="34" height="34" viewBox="0 0 34 34" fill="none" xmlns="http://www.w3.org/2000/svg">
<path fill-rule="evenodd" clip-rule="evenodd" d="M0 3.09091V30.9091C0 31.7288 0.325648 32.515 0.905306 33.0947C1.48496 33.6744 2.27115 34 3.09091 34H30.9091C31.7288 34 32.515 33.6744 33.0947 33.0947C33.6744 32.515 34 31.7288 34 30.9091V3.09091C34 2.27115 33.6744 1.48496 33.0947 0.905306C32.515 0.325648 31.7288 0 30.9091 0H3.09091C2.27115 0 1.48496 0.325648 0.905306 0.905306C0.325648 1.48496 0 2.27115 0 3.09091ZM10.1692 7.00596C10.1692 6.45039 9.71463 6 9.15385 6C8.59306 6 8.13846 6.45039 8.13846 7.00596V9.10934H6.01538C5.4546 9.10934 5 9.55973 5 10.1153C5 10.6709 5.4546 11.1213 6.01538 11.1213H8.13846V13.2247C8.13846 13.7802 8.59306 14.2306 9.15385 14.2306C9.71463 14.2306 10.1692 13.7802 10.1692 13.2247V11.1213H12.2923C12.8531 11.1213 13.3077 10.6709 13.3077 10.1153C13.3077 9.55973 12.8531 9.10934 12.2923 9.10934H10.1692V7.00596ZM21.7077 9.10934C21.1469 9.10934 20.6923 9.55973 20.6923 10.1153C20.6923 10.6709 21.1469 11.1213 21.7077 11.1213H27.9846C28.5454 11.1213 29 10.6709 29 10.1153C29 9.55973 28.5454 9.10934 27.9846 9.10934H21.7077ZM21.7077 22.3241C21.1469 22.3241 20.6923 22.7744 20.6923 23.33C20.6923 23.8856 21.1469 24.336 21.7077 24.336H27.9846C28.5454 24.336 29 23.8856 29 23.33C29 22.7744 28.5454 22.3241 27.9846 22.3241H21.7077ZM7.65294 22.7524C7.25641 22.3595 6.6135 22.3595 6.21697 22.7524C5.82044 23.1453 5.82044 23.7822 6.21697 24.175L7.71787 25.662L6.21697 27.149C5.82044 27.5419 5.82044 28.1788 6.21697 28.5717C6.6135 28.9645 7.25641 28.9645 7.65294 28.5717L9.1541 27.0844L10.6566 28.5719C11.0532 28.9646 11.6962 28.9644 12.0925 28.5714C12.4889 28.1784 12.4887 27.5415 12.092 27.1488L10.5903 25.662L12.092 24.1753C12.4887 23.7826 12.4889 23.1456 12.0925 22.7526C11.6962 22.3597 11.0532 22.3594 10.6566 22.7521L9.1541 24.2396L7.65294 22.7524ZM21.7077 26.9881C21.1469 26.9881 20.6923 27.4385 20.6923 27.994C20.6923 28.5496 21.1469 29 21.7077 29H27.9846C28.5454 29 29 28.5496 29 27.994C29 27.4385 28.5454 26.9881 27.9846 26.9881H21.7077Z" fill="white"/>
</svg>
