<svg width="52" height="57" viewBox="0 0 52 57" fill="none" xmlns="http://www.w3.org/2000/svg">
<g clip-path="url(#clip0_590_269)">
<path d="M3.15037 21.8789V8.05242H0.645386V6.67618H3.15037V4.83607C3.15037 3.28043 3.5432 2.08615 4.33143 1.25323C5.11966 0.417742 6.21654 0 7.62463 0C8.25981 0 8.85162 0.0794479 9.40006 0.238344L9.27506 1.64278C8.80825 1.53001 8.30062 1.47363 7.74963 1.47363C6.8262 1.47363 6.1094 1.76067 5.59667 2.3373C5.08394 2.91394 4.8263 3.73149 4.8263 4.78994V6.67362H8.43582V8.04986H4.8263V21.8764H3.14781L3.15037 21.8789Z" fill="white"/>
<path d="M18.7006 22.1583C17.4149 22.1583 16.2517 21.8405 15.2109 21.2023C14.1702 20.5642 13.3615 19.6775 12.785 18.5396C12.206 17.4017 11.9177 16.1254 11.9177 14.7107V14.1059C11.9177 12.645 12.2009 11.3277 12.7646 10.1565C13.3284 8.98531 14.114 8.06525 15.1216 7.39635C16.1293 6.72745 17.2185 6.39172 18.3944 6.39172C20.2311 6.39172 21.6877 7.02218 22.7641 8.28053C23.8406 9.54145 24.3788 11.2611 24.3788 13.4446V14.3852H13.5809V14.7081C13.5809 16.4329 14.0732 17.8681 15.0553 19.0162C16.04 20.1644 17.2772 20.7385 18.7694 20.7385C19.6648 20.7385 20.4556 20.5744 21.1392 20.2464C21.8254 19.9184 22.4478 19.393 23.0065 18.6728L24.0549 19.475C22.8254 21.2639 21.0397 22.1583 18.698 22.1583H18.7006ZM18.3919 7.82435C17.1343 7.82435 16.0731 8.28822 15.2109 9.21597C14.3487 10.1437 13.8232 11.3893 13.637 12.9526H22.7131V12.7706C22.6672 11.3098 22.2514 10.1206 21.4683 9.20059C20.6852 8.2831 19.6597 7.82435 18.3919 7.82435Z" fill="white"/>
<path d="M30.5878 21.8789V8.05243H28.0853V6.67618H30.5878V4.83607C30.5878 3.28043 30.9806 2.08615 31.7688 1.25323C32.557 0.420305 33.6539 0.00256348 35.062 0.00256348C35.6972 0.00256348 36.289 0.0820113 36.8374 0.240907L36.7125 1.64534C36.2456 1.53258 35.738 1.47619 35.187 1.47619C34.2636 1.47619 33.5468 1.76323 33.0341 2.33987C32.5213 2.91651 32.2637 3.73405 32.2637 4.7925V6.67618H35.8732V8.05243H32.2637V21.8789H30.5852H30.5878Z" fill="white"/>
<path d="M50.3495 19.9543C49.3419 21.4253 47.7349 22.1609 45.5232 22.1609C43.9111 22.1609 42.6841 21.6893 41.8449 20.7487C41.0056 19.8082 40.5771 18.414 40.5592 16.5687V6.67365H42.2224V16.356C42.2224 19.252 43.3881 20.6975 45.7197 20.6975C48.0512 20.6975 49.6787 19.6903 50.3215 17.6759V6.67365H52V21.8764H50.3776L50.3495 19.9517V19.9543Z" fill="white"/>
<path d="M3.07893 56.6054V39.8957H0V35.2851H3.07893V33.5911C3.07893 31.1615 3.79063 29.2753 5.21658 27.9375C6.64253 26.5971 8.64243 25.9282 11.2188 25.9282C12.1601 25.9282 13.1932 26.0666 14.3182 26.3408L14.3386 31.2282C13.933 31.1103 13.3896 31.0513 12.7111 31.0513C10.7112 31.0513 9.71126 31.9176 9.71126 33.6526V35.2877H13.8488V39.8982H9.71126V56.6079H3.07893V56.6054Z" fill="white"/>
<path d="M22.4275 29.7878C22.4275 28.8421 22.7668 28.0682 23.4478 27.4633C24.1264 26.8585 25.009 26.5561 26.0957 26.5561C27.1824 26.5561 28.0624 26.8585 28.7435 27.4633C29.422 28.0682 29.7639 28.8421 29.7639 29.7878C29.7639 30.7335 29.4246 31.5101 28.7435 32.1123C28.0624 32.7171 27.1798 33.0196 26.0957 33.0196C25.0115 33.0196 24.1264 32.7171 23.4478 32.1123C22.7668 31.5075 22.4275 30.7335 22.4275 29.7878ZM29.4476 56.6053H22.8178V35.2851H29.4476V56.6053Z" fill="white"/>
<path d="M47.5206 29.9852V35.2851H51.0128V39.8956H47.5206V49.6498C47.5206 50.452 47.6634 51.0107 47.9517 51.3259C48.2399 51.6411 48.8088 51.8 49.6582 51.8C50.3113 51.8 50.8597 51.7616 51.3061 51.6821V56.4311C50.1174 56.8129 48.8751 57.0026 47.5793 57.0026C45.3039 57.0026 43.6228 56.4644 42.5387 55.388C41.452 54.3116 40.9112 52.6765 40.9112 50.4827V39.9008H38.2047V35.2902H40.9112V29.9903H47.5206V29.9852Z" fill="white"/>
</g>
<defs>
<clipPath id="clip0_590_269">
<rect width="52" height="57" fill="white"/>
</clipPath>
</defs>
</svg>
