<svg width="34" height="34" viewBox="0 0 34 34" fill="none" xmlns="http://www.w3.org/2000/svg">
<path d="M33.2609 0H19.2174C18.8109 0 18.4783 0.332609 18.4783 0.73913V14.7826C18.4783 15.1891 18.8109 15.5217 19.2174 15.5217H33.2609C33.6674 15.5217 34 15.1891 34 14.7826V0.73913C34 0.332609 33.6674 0 33.2609 0ZM33.2609 18.4783H19.2174C18.8109 18.4783 18.4783 18.8109 18.4783 19.2174V33.2609C18.4783 33.6674 18.8109 34 19.2174 34H33.2609C33.6674 34 34 33.6674 34 33.2609V19.2174C34 18.8109 33.6674 18.4783 33.2609 18.4783ZM14.7826 0H0.73913C0.332609 0 0 0.332609 0 0.73913V14.7826C0 15.1891 0.332609 15.5217 0.73913 15.5217H14.7826C15.1891 15.5217 15.5217 15.1891 15.5217 14.7826V0.73913C15.5217 0.332609 15.1891 0 14.7826 0ZM14.7826 18.4783H0.73913C0.332609 18.4783 0 18.8109 0 19.2174V33.2609C0 33.6674 0.332609 34 0.73913 34H14.7826C15.1891 34 15.5217 33.6674 15.5217 33.2609V19.2174C15.5217 18.8109 15.1891 18.4783 14.7826 18.4783Z" fill="white"/>
</svg>
