<svg width="32" height="33" viewBox="0 0 32 33" fill="none" xmlns="http://www.w3.org/2000/svg">
<path fill-rule="evenodd" clip-rule="evenodd" d="M7.15385 1C7.15385 0.447715 6.70614 0 6.15385 0C5.60157 0 5.15385 0.447715 5.15385 1V3.46154C5.15385 3.46158 5.15385 3.46163 5.15385 3.46167H3.69231C1.6531 3.46167 0 5.11477 0 7.15398V8.61523H32V7.15398C32 5.11477 30.3469 3.46167 28.3077 3.46167H26.8462C26.8462 3.46163 26.8462 3.46158 26.8462 3.46154V1C26.8462 0.447715 26.3984 0 25.8462 0C25.2939 0 24.8462 0.447715 24.8462 1V3.46154C24.8462 3.46158 24.8462 3.46163 24.8462 3.46167H7.15385C7.15385 3.46163 7.15385 3.46158 7.15385 3.46154V1ZM0 10.6152H32V29.3078C32 31.347 30.3469 33.0001 28.3077 33.0001H3.69231C1.6531 33.0001 0 31.347 0 29.3078V10.6152ZM20.9231 15.1538C20.9231 16.1734 20.0965 16.9999 19.0769 16.9999C18.0573 16.9999 17.2308 16.1734 17.2308 15.1538C17.2308 14.1342 18.0573 13.3076 19.0769 13.3076C20.0965 13.3076 20.9231 14.1342 20.9231 15.1538ZM25.2308 16.9999C26.2504 16.9999 27.0769 16.1734 27.0769 15.1538C27.0769 14.1342 26.2504 13.3076 25.2308 13.3076C24.2112 13.3076 23.3846 14.1342 23.3846 15.1538C23.3846 16.1734 24.2112 16.9999 25.2308 16.9999ZM20.9231 21.3078C20.9231 22.3274 20.0965 23.154 19.0769 23.154C18.0573 23.154 17.2308 22.3274 17.2308 21.3078C17.2308 20.2882 18.0573 19.4617 19.0769 19.4617C20.0965 19.4617 20.9231 20.2882 20.9231 21.3078ZM25.2308 23.154C26.2504 23.154 27.0769 22.3274 27.0769 21.3078C27.0769 20.2882 26.2504 19.4617 25.2308 19.4617C24.2112 19.4617 23.3846 20.2882 23.3846 21.3078C23.3846 22.3274 24.2112 23.154 25.2308 23.154ZM8.61539 21.3078C8.61539 22.3274 7.78884 23.154 6.76923 23.154C5.74963 23.154 4.92308 22.3274 4.92308 21.3078C4.92308 20.2882 5.74963 19.4617 6.76923 19.4617C7.78884 19.4617 8.61539 20.2882 8.61539 21.3078ZM12.9231 23.154C13.9427 23.154 14.7692 22.3274 14.7692 21.3078C14.7692 20.2882 13.9427 19.4617 12.9231 19.4617C11.9035 19.4617 11.0769 20.2882 11.0769 21.3078C11.0769 22.3274 11.9035 23.154 12.9231 23.154ZM8.61539 27.4614C8.61539 28.481 7.78884 29.3075 6.76923 29.3075C5.74963 29.3075 4.92308 28.481 4.92308 27.4614C4.92308 26.4418 5.74963 25.6152 6.76923 25.6152C7.78884 25.6152 8.61539 26.4418 8.61539 27.4614ZM12.9231 29.3075C13.9427 29.3075 14.7692 28.481 14.7692 27.4614C14.7692 26.4418 13.9427 25.6152 12.9231 25.6152C11.9035 25.6152 11.0769 26.4418 11.0769 27.4614C11.0769 28.481 11.9035 29.3075 12.9231 29.3075ZM20.9231 27.4614C20.9231 28.481 20.0965 29.3075 19.0769 29.3075C18.0573 29.3075 17.2308 28.481 17.2308 27.4614C17.2308 26.4418 18.0573 25.6152 19.0769 25.6152C20.0965 25.6152 20.9231 26.4418 20.9231 27.4614Z" fill="white"/>
</svg>
