<svg width="34" height="34" viewBox="0 0 34 34" fill="none" xmlns="http://www.w3.org/2000/svg">
<path fill-rule="evenodd" clip-rule="evenodd" d="M20.4783 2V13.5217H32V2H20.4783ZM20.4783 20.4783V32H32V20.4783H20.4783ZM2 2V13.5217H13.5217V2H2ZM2 20.4783V32H13.5217V20.4783H2ZM19.2174 0H33.2609C33.6674 0 34 0.332609 34 0.73913V14.7826C34 15.1891 33.6674 15.5217 33.2609 15.5217H19.2174C18.8109 15.5217 18.4783 15.1891 18.4783 14.7826V0.73913C18.4783 0.332609 18.8109 0 19.2174 0ZM19.2174 18.4783H33.2609C33.6674 18.4783 34 18.8109 34 19.2174V33.2609C34 33.6674 33.6674 34 33.2609 34H19.2174C18.8109 34 18.4783 33.6674 18.4783 33.2609V19.2174C18.4783 18.8109 18.8109 18.4783 19.2174 18.4783ZM0.73913 0H14.7826C15.1891 0 15.5217 0.332609 15.5217 0.73913V14.7826C15.5217 15.1891 15.1891 15.5217 14.7826 15.5217H0.73913C0.332609 15.5217 0 15.1891 0 14.7826V0.73913C0 0.332609 0.332609 0 0.73913 0ZM0.73913 18.4783H14.7826C15.1891 18.4783 15.5217 18.8109 15.5217 19.2174V33.2609C15.5217 33.6674 15.1891 34 14.7826 34H0.73913C0.332609 34 0 33.6674 0 33.2609V19.2174C0 18.8109 0.332609 18.4783 0.73913 18.4783Z" fill="white"/>
</svg>
