<svg width="28" height="28" viewBox="0 0 28 28" fill="none" xmlns="http://www.w3.org/2000/svg">

<path d="M23.3334 11.6666C23.3334 11.3572 23.2105 11.0604 22.9917 10.8416C22.7729 10.6228 22.4762 10.4999 22.1668 10.4999C21.8573 10.4999 21.5606 10.6228 21.3418 10.8416C21.123 11.0604 21.0001 11.3572 21.0001 11.6666H23.3334ZM7.00009 11.6666C7.00009 11.3572 6.87718 11.0604 6.65839 10.8416C6.43959 10.6228 6.14285 10.4999 5.83343 10.4999C5.52401 10.4999 5.22726 10.6228 5.00847 10.8416C4.78968 11.0604 4.66676 11.3572 4.66676 11.6666H7.00009ZM23.6753 14.8247C23.8953 15.0373 24.19 15.1549 24.4959 15.1522C24.8018 15.1495 25.0944 15.0268 25.3107 14.8105C25.527 14.5942 25.6497 14.3016 25.6524 13.9957C25.655 13.6898 25.5374 13.3951 25.3249 13.1751L23.6753 14.8247ZM14.0001 3.49991L14.8249 2.67508C14.6061 2.45636 14.3095 2.3335 14.0001 2.3335C13.6907 2.3335 13.394 2.45636 13.1753 2.67508L14.0001 3.49991ZM2.67526 13.1751C2.56383 13.2827 2.47495 13.4114 2.41381 13.5538C2.35267 13.6961 2.32048 13.8492 2.31914 14.0041C2.31779 14.159 2.34731 14.3126 2.40597 14.456C2.46463 14.5994 2.55126 14.7297 2.6608 14.8392C2.77034 14.9487 2.9006 15.0354 3.04398 15.094C3.18736 15.1527 3.34099 15.1822 3.4959 15.1809C3.65081 15.1795 3.8039 15.1473 3.94623 15.0862C4.08857 15.0251 4.21731 14.9362 4.32493 14.8247L2.67526 13.1751ZM8.16676 25.6666H19.8334V23.3332H8.16676V25.6666ZM23.3334 22.1666V11.6666H21.0001V22.1666H23.3334ZM7.00009 22.1666V11.6666H4.66676V22.1666H7.00009ZM25.3249 13.1751L14.8249 2.67508L13.1753 4.32475L23.6753 14.8247L25.3249 13.1751ZM13.1753 2.67508L2.67526 13.1751L4.32493 14.8247L14.8249 4.32475L13.1753 2.67508ZM19.8334 25.6666C20.7617 25.6666 21.6519 25.2978 22.3083 24.6415C22.9647 23.9851 23.3334 23.0948 23.3334 22.1666H21.0001C21.0001 22.476 20.8772 22.7727 20.6584 22.9915C20.4396 23.2103 20.1428 23.3332 19.8334 23.3332V25.6666ZM8.16676 23.3332C7.85734 23.3332 7.5606 23.2103 7.3418 22.9915C7.12301 22.7727 7.00009 22.476 7.00009 22.1666H4.66676C4.66676 23.0948 5.03551 23.9851 5.69189 24.6415C6.34827 25.2978 7.2385 25.6666 8.16676 25.6666V23.3332Z" fill="white"/>

</svg>