<?xml version="1.0" encoding="UTF-8"?>
<svg xmlns="http://www.w3.org/2000/svg" xmlns:xlink="http://www.w3.org/1999/xlink" width="34px" height="34px" viewBox="0 0 34 34" version="1.1">
<g id="surface1">
<path style=" stroke:none;fill-rule:nonzero;fill:rgb(0%,0%,0%);fill-opacity:1;" d="M 2.832031 9.917969 L 2.832031 2.832031 L 9.917969 2.832031 L 9.917969 5.667969 L 5.667969 5.667969 L 5.667969 9.917969 Z M 2.832031 31.167969 L 2.832031 24.082031 L 5.667969 24.082031 L 5.667969 28.332031 L 9.917969 28.332031 L 9.917969 31.167969 Z M 24.082031 31.167969 L 24.082031 28.332031 L 28.332031 28.332031 L 28.332031 24.082031 L 31.167969 24.082031 L 31.167969 31.167969 Z M 28.332031 9.917969 L 28.332031 5.667969 L 24.082031 5.667969 L 24.082031 2.832031 L 31.167969 2.832031 L 31.167969 9.917969 Z M 24.792969 24.792969 L 26.917969 24.792969 L 26.917969 26.917969 L 24.792969 26.917969 Z M 24.792969 20.542969 L 26.917969 20.542969 L 26.917969 22.667969 L 24.792969 22.667969 Z M 22.667969 22.667969 L 24.792969 22.667969 L 24.792969 24.792969 L 22.667969 24.792969 Z M 20.542969 24.792969 L 22.667969 24.792969 L 22.667969 26.917969 L 20.542969 26.917969 Z M 18.417969 22.667969 L 20.542969 22.667969 L 20.542969 24.792969 L 18.417969 24.792969 Z M 22.667969 18.417969 L 24.792969 18.417969 L 24.792969 20.542969 L 22.667969 20.542969 Z M 20.542969 20.542969 L 22.667969 20.542969 L 22.667969 22.667969 L 20.542969 22.667969 Z M 18.417969 18.417969 L 20.542969 18.417969 L 20.542969 20.542969 L 18.417969 20.542969 Z M 26.917969 7.082031 L 26.917969 15.582031 L 18.417969 15.582031 L 18.417969 7.082031 Z M 15.582031 18.417969 L 15.582031 26.917969 L 7.082031 26.917969 L 7.082031 18.417969 Z M 15.582031 7.082031 L 15.582031 15.582031 L 7.082031 15.582031 L 7.082031 7.082031 Z M 13.457031 24.792969 L 13.457031 20.542969 L 9.207031 20.542969 L 9.207031 24.792969 Z M 13.457031 13.457031 L 13.457031 9.207031 L 9.207031 9.207031 L 9.207031 13.457031 Z M 24.792969 13.457031 L 24.792969 9.207031 L 20.542969 9.207031 L 20.542969 13.457031 Z M 24.792969 13.457031 "/>
</g>
</svg>
