<?xml version="1.0" encoding="UTF-8"?>
<svg xmlns="http://www.w3.org/2000/svg" xmlns:xlink="http://www.w3.org/1999/xlink" width="24px" height="24px" viewBox="0 0 24 24" version="1.1">
<g id="surface1">
<path style=" stroke:none;fill-rule:nonzero;fill:rgb(0%,0%,0%);fill-opacity:1;" d="M 11.75 0.00390625 C 11.402344 0.0117188 11.003906 0.0390625 10.636719 0.078125 C 7.386719 0.445312 4.414062 2.148438 2.425781 4.777344 C 0.738281 7.011719 -0.109375 9.730469 0.015625 12.53125 C 0.160156 15.847656 1.664062 18.929688 4.203125 21.109375 C 4.796875 21.621094 5.464844 22.089844 6.152344 22.472656 C 8.253906 23.648438 10.644531 24.160156 13.058594 23.949219 C 15.484375 23.738281 17.773438 22.792969 19.671875 21.214844 C 20.367188 20.640625 21.027344 19.949219 21.578125 19.21875 C 23.34375 16.878906 24.183594 14.007812 23.960938 11.074219 C 23.746094 8.226562 22.511719 5.554688 20.480469 3.519531 C 19.910156 2.949219 19.304688 2.457031 18.636719 2.007812 C 16.597656 0.648438 14.214844 -0.0429688 11.75 0.00390625 Z M 12.546875 2.234375 C 13.433594 2.292969 14.183594 2.429688 14.988281 2.6875 C 15.660156 2.902344 16.386719 3.230469 17 3.597656 C 18.871094 4.722656 20.3125 6.417969 21.109375 8.441406 C 21.453125 9.316406 21.671875 10.261719 21.746094 11.203125 C 21.785156 11.691406 21.789062 12.230469 21.753906 12.710938 C 21.609375 14.683594 20.871094 16.558594 19.628906 18.109375 C 18.835938 19.097656 17.851562 19.929688 16.730469 20.554688 C 16.542969 20.660156 16.148438 20.855469 15.945312 20.945312 C 14.910156 21.402344 13.835938 21.671875 12.707031 21.753906 C 12.234375 21.789062 11.695312 21.785156 11.203125 21.746094 C 10.085938 21.660156 8.957031 21.363281 7.933594 20.890625 C 6.601562 20.28125 5.429688 19.382812 4.484375 18.246094 C 4.097656 17.785156 3.746094 17.273438 3.441406 16.730469 C 3.339844 16.542969 3.144531 16.152344 3.054688 15.949219 C 2.5 14.695312 2.222656 13.371094 2.222656 12 C 2.222656 10.628906 2.5 9.308594 3.054688 8.054688 C 3.144531 7.851562 3.339844 7.457031 3.445312 7.265625 C 3.820312 6.589844 4.265625 5.976562 4.789062 5.398438 C 4.921875 5.257812 5.257812 4.921875 5.398438 4.789062 C 6.875 3.445312 8.679688 2.59375 10.636719 2.316406 C 10.953125 2.273438 11.25 2.246094 11.660156 2.226562 C 11.765625 2.222656 12.4375 2.226562 12.546875 2.234375 Z M 12.546875 2.234375 "/>
<path style=" stroke:none;fill-rule:nonzero;fill:rgb(0%,0%,0%);fill-opacity:1;" d="M 8 8.445312 L 8 11.554688 L 7.109375 11.554688 L 7.109375 13.332031 L 8 13.332031 L 8 13.777344 L 7.109375 13.777344 L 7.109375 15.554688 L 8 15.554688 L 8 19.109375 L 10.667969 19.109375 L 10.667969 15.554688 L 15.109375 15.554688 L 15.109375 13.777344 L 10.667969 13.777344 L 10.667969 13.335938 L 12.242188 13.332031 C 13.847656 13.328125 13.84375 13.328125 14.074219 13.300781 C 14.953125 13.199219 15.761719 12.839844 16.421875 12.265625 C 16.546875 12.15625 16.757812 11.9375 16.859375 11.820312 C 17.269531 11.324219 17.546875 10.765625 17.683594 10.164062 C 17.824219 9.539062 17.804688 8.878906 17.621094 8.257812 C 17.46875 7.746094 17.214844 7.273438 16.855469 6.84375 C 16.707031 6.664062 16.464844 6.429688 16.269531 6.273438 C 15.625 5.757812 14.8125 5.433594 13.980469 5.355469 C 13.769531 5.335938 13.550781 5.332031 10.824219 5.332031 L 8 5.332031 Z M 13.320312 7.117188 C 13.839844 7.160156 14.328125 7.347656 14.734375 7.671875 C 14.835938 7.75 15.023438 7.941406 15.101562 8.042969 C 15.34375 8.355469 15.488281 8.699219 15.542969 9.089844 C 15.554688 9.179688 15.554688 9.488281 15.542969 9.578125 C 15.488281 9.972656 15.335938 10.328125 15.085938 10.640625 C 15.007812 10.742188 14.832031 10.917969 14.734375 10.996094 C 14.363281 11.289062 13.949219 11.464844 13.449219 11.535156 L 13.34375 11.550781 L 12.003906 11.554688 L 10.667969 11.554688 L 10.667969 7.109375 L 11.945312 7.109375 C 12.773438 7.109375 13.257812 7.113281 13.320312 7.117188 Z M 13.320312 7.117188 "/>
</g>
</svg>
