<svg width="28" height="28" viewBox="0 0 28 28" fill="none" xmlns="http://www.w3.org/2000/svg">
<path d="M2.93698 10.9874C2.93544 10.9874 2.93395 10.9868 2.93286 10.9857C2.93177 10.9846 2.93115 10.9832 2.93115 10.9816V2.93698C2.93115 2.93544 2.93177 2.93395 2.93286 2.93286C2.93395 2.93177 2.93544 2.93115 2.93698 2.93115H10.9836C10.9852 2.93115 10.9867 2.93177 10.9878 2.93286C10.9888 2.93395 10.9895 2.93544 10.9895 2.93698V10.9816C10.9895 10.9832 10.9888 10.9846 10.9878 10.9857C10.9867 10.9868 10.9852 10.9874 10.9836 10.9874H2.93698ZM17.0186 10.9874C17.0178 10.9874 17.017 10.9873 17.0163 10.987C17.0156 10.9867 17.015 10.9863 17.0145 10.9857C17.0134 10.9846 17.0128 10.9832 17.0128 10.9816V2.93698C17.0128 2.93543 17.0134 2.93395 17.0145 2.93286C17.0156 2.93177 17.0171 2.93115 17.0186 2.93115H25.0633C25.0648 2.93115 25.0663 2.93177 25.0674 2.93286L25.7731 2.22718L25.0674 2.93286C25.0685 2.93395 25.0691 2.93544 25.0691 2.93698V10.9816C25.0691 10.9832 25.0685 10.9846 25.0674 10.9857L25.7745 11.6928L25.0674 10.9857C25.0663 10.9868 25.0648 10.9874 25.0633 10.9874H17.0186ZM2.93698 25.0691C2.93543 25.0691 2.93395 25.0685 2.93286 25.0674C2.93177 25.0663 2.93115 25.0648 2.93115 25.0633V17.0166C2.93115 17.0151 2.93177 17.0136 2.93286 17.0125C2.93395 17.0114 2.93543 17.0108 2.93698 17.0108H10.9836C10.9852 17.0108 10.9867 17.0114 10.9878 17.0125C10.9888 17.0136 10.9895 17.0151 10.9895 17.0166V25.0633C10.9895 25.0648 10.9888 25.0663 10.9878 25.0674C10.9874 25.0677 10.9871 25.068 10.9867 25.0682C10.9858 25.0688 10.9847 25.0691 10.9836 25.0691H2.93698ZM17.0186 25.0691C17.0171 25.0691 17.0156 25.0685 17.0145 25.0674C17.0134 25.0663 17.0128 25.0648 17.0128 25.0633V17.0166C17.0128 17.0151 17.0134 17.0136 17.0145 17.0125C17.0156 17.0114 17.0171 17.0108 17.0186 17.0108H25.0633C25.0648 17.0108 25.0663 17.0114 25.0674 17.0125C25.0685 17.0136 25.0691 17.0151 25.0691 17.0166V25.0633C25.0691 25.0648 25.0685 25.0663 25.0674 25.0674C25.0663 25.0685 25.0648 25.0691 25.0633 25.0691H17.0186Z" stroke="white" stroke-width="2" stroke-linejoin="round"/>
</svg>
