<?xml version="1.0" standalone="no"?>
<!DOCTYPE svg PUBLIC "-//W3C//DTD SVG 20010904//EN"
 "http://www.w3.org/TR/2001/REC-SVG-20010904/DTD/svg10.dtd">
<svg version="1.0" xmlns="http://www.w3.org/2000/svg"
 width="656.000000pt" height="656.000000pt" viewBox="0 0 656.000000 656.000000"
 preserveAspectRatio="xMidYMid meet">
<metadata>
Created by potrace 1.14, written by Peter Selinger 2001-2017
</metadata>
<g transform="translate(0.000000,656.000000) scale(0.100000,-0.100000)"
fill="#000000" stroke="none">
<path d="M1008 6546 c-86 -19 -167 -64 -229 -125 -103 -104 -140 -221 -144
-461 -2 -85 -4 -158 -4 -162 -1 -5 -65 -8 -144 -8 l-143 0 2 -72 c1 -40 2 -76
3 -79 0 -4 64 -6 141 -5 85 1 141 -3 143 -9 2 -5 3 -362 2 -792 0 -431 2 -784
5 -785 3 0 47 -2 97 -3 l93 -2 2 796 3 795 205 1 205 0 1 78 1 77 -31 1 c-17
1 -111 1 -209 1 l-179 -1 4 172 c5 203 20 257 94 332 68 70 118 88 244 89 58
1 120 -1 139 -4 38 -6 38 -7 43 93 3 59 3 60 -27 69 -49 15 -254 17 -317 4z"/>
<path d="M4176 6544 c-169 -41 -298 -169 -340 -340 -22 -87 -25 -125 -26 -276
l0 -138 -144 0 -145 0 0 -79 0 -78 127 -1 c70 0 135 0 145 -1 16 -1 17 -46 17
-795 l0 -794 83 0 c45 0 89 1 97 4 14 3 15 96 15 786 -1 431 0 788 2 793 2 6
79 10 208 9 229 -1 207 -9 207 71 0 19 0 46 -1 60 l-1 25 -204 0 c-154 0 -205
3 -208 13 -2 6 -4 75 -3 153 2 180 23 258 90 331 63 71 124 96 245 99 52 2
113 -1 135 -6 22 -5 41 -7 43 -5 2 2 6 39 9 83 l5 79 -38 7 c-75 15 -257 15
-318 0z"/>
<path d="M2290 5815 c-314 -56 -546 -302 -619 -657 -22 -111 -26 -366 -7 -468
62 -320 238 -541 511 -637 136 -49 305 -55 473 -19 140 30 312 146 387 260 17
26 17 27 -1 40 -10 8 -37 28 -58 45 l-39 31 -51 -53 c-113 -117 -240 -174
-404 -181 -219 -10 -398 81 -519 262 -41 62 -86 165 -98 227 -5 22 -10 47 -12
55 -2 8 -5 53 -7 100 l-5 85 625 0 c413 0 624 3 625 10 2 39 -3 229 -7 252
-20 119 -28 154 -50 215 -98 271 -314 430 -600 441 -44 2 -108 -2 -144 -8z
m203 -165 c155 -25 296 -148 359 -312 11 -29 22 -62 25 -73 9 -40 23 -141 23
-167 l0 -28 -526 0 -525 0 7 48 c14 100 66 232 123 316 113 167 311 250 514
216z"/>
<path d="M4995 5792 l-30 -3 0 -617 c1 -646 4 -688 47 -817 57 -171 173 -278
349 -325 59 -15 100 -18 199 -16 143 4 172 9 255 38 106 38 183 89 245 163
l35 41 5 -105 5 -106 93 -1 92 -1 0 873 0 874 -50 1 c-63 2 -83 2 -117 0 l-28
-1 0 -638 0 -638 -34 -67 c-88 -174 -259 -266 -494 -268 -170 -1 -291 67 -352
197 -55 120 -58 158 -58 841 0 522 -1 573 -16 574 -9 0 -38 1 -66 2 -27 1 -64
1 -80 -1z"/>
<path d="M1447 3574 c-1 -1 -24 -5 -52 -8 -344 -39 -597 -217 -704 -495 -44
-113 -61 -225 -64 -405 -1 -87 -5 -160 -9 -163 -5 -2 -85 -4 -178 -4 l-170 1
0 -265 0 -265 178 0 178 0 -1 -948 c0 -521 1 -954 3 -962 3 -13 53 -15 383
-15 247 0 379 3 380 10 1 5 2 438 3 960 l1 950 239 5 240 5 0 260 0 260 -190
2 c-104 1 -212 3 -241 3 l-52 0 3 140 c3 128 6 144 31 195 49 101 144 148 300
149 49 0 116 -3 148 -7 l58 -7 -2 279 -1 280 -51 11 c-137 28 -175 32 -308 34
-65 1 -120 1 -122 0z"/>
<path d="M3195 3495 c-96 -17 -160 -49 -226 -115 -71 -70 -100 -142 -100 -245
0 -192 123 -330 326 -366 76 -13 204 -7 250 11 174 71 260 174 269 324 15 265
-219 442 -519 391z"/>
<path d="M5009 3106 c-2 -2 -4 -140 -3 -305 l1 -301 -76 -1 c-42 0 -112 -1
-156 -2 l-80 -2 -2 -262 -3 -263 33 -1 c17 0 88 -2 157 -2 l125 -2 1 -650 c1
-357 4 -677 8 -709 33 -290 170 -476 409 -555 37 -13 82 -25 100 -28 18 -2 48
-8 68 -12 49 -11 302 -11 369 0 30 5 70 11 88 14 18 3 62 12 98 21 l64 16 0
273 0 273 -117 -5 c-209 -10 -285 23 -310 133 -8 34 -12 234 -13 642 l0 592
203 0 203 0 0 263 -1 262 -180 2 c-99 1 -190 3 -202 3 l-23 0 0 305 0 305
-378 0 c-208 0 -381 -2 -383 -4z"/>
<path d="M2910 1276 c0 -970 3 -1225 13 -1228 6 -2 179 -4 382 -4 l370 1 2
1227 2 1227 -384 1 -385 0 0 -1224z"/>
</g>
</svg>
